<svg xmlns="http://www.w3.org/2000/svg" viewBox="0 0 112.99 133.11"><defs><style>.cls-1{fill:#303030;}</style></defs><title>radar_relay_avatar</title><g id="Layer_2" data-name="Layer 2"><g id="Layer_1-2" data-name="Layer 1"><path class="cls-1" d="M109,59.48A59.54,59.54,0,0,0,49.5,0H0V5.61l49.5.05a53.79,53.79,0,0,1,32.6,96.59L76,96.19a45.3,45.3,0,0,0-26.53-82L0,14.21v5.62H49.51A39.64,39.64,0,0,1,72,92.13L65.83,86A31.15,31.15,0,0,0,49.51,28.32H.08L56,84.14a25.57,25.57,0,0,1-6.45.82H0v5.65H49.51a31.06,31.06,0,0,0,11-2l6.46,6.45a39.39,39.39,0,0,1-17.41,4H0v5.68H49.51a45,45,0,0,0,21.62-5.5l6.22,6.22a53.51,53.51,0,0,1-27.85,7.78H0v5.63l49.5,0a59.15,59.15,0,0,0,32-9.33L99.3,127.44l-99.3,0v5.69H113L86.14,106.29A59.39,59.39,0,0,0,109,59.48ZM13.77,34H49.51A25.49,25.49,0,0,1,61.69,81.86Z"/></g></g></svg>